<svg xmlns="http://www.w3.org/2000/svg" version="1.1" xmlns:xlink="http://www.w3.org/1999/xlink" xmlns:svgjs="http://svgjs.dev/svgjs" viewBox="0 0 2400 800" opacity="0.76"><defs><linearGradient x1="50%" y1="0%" x2="50%" y2="100%" id="sssurf-grad"><stop stop-color="hsl(243, 56%, 54%)" stop-opacity="1" offset="0%"></stop><stop stop-color="	hsl(242, 100%, 78%)" stop-opacity="1" offset="100%"></stop></linearGradient></defs><g fill="url(#sssurf-grad)" transform="matrix(1,0,0,1,0,-198.19253540039062)"><path d="M 0 348.0906896910255 Q 581.7554074274029 450 800 328.81752751591534 Q 1238.6480540002167 450 1600 309.4417096541253 Q 1913.977425361446 450 2400 308.38503647824234 L 2400 800 L 0 800 L 0 344.77619757313545 Z" transform="matrix(1,0,0,1,0,61)" opacity="0.05"></path><path d="M 0 348.0906896910255 Q 581.7554074274029 450 800 328.81752751591534 Q 1238.6480540002167 450 1600 309.4417096541253 Q 1913.977425361446 450 2400 308.38503647824234 L 2400 800 L 0 800 L 0 344.77619757313545 Z" transform="matrix(1,0,0,1,0,122)" opacity="0.21"></path><path d="M 0 348.0906896910255 Q 581.7554074274029 450 800 328.81752751591534 Q 1238.6480540002167 450 1600 309.4417096541253 Q 1913.977425361446 450 2400 308.38503647824234 L 2400 800 L 0 800 L 0 344.77619757313545 Z" transform="matrix(1,0,0,1,0,183)" opacity="0.37"></path><path d="M 0 348.0906896910255 Q 581.7554074274029 450 800 328.81752751591534 Q 1238.6480540002167 450 1600 309.4417096541253 Q 1913.977425361446 450 2400 308.38503647824234 L 2400 800 L 0 800 L 0 344.77619757313545 Z" transform="matrix(1,0,0,1,0,244)" opacity="0.53"></path><path d="M 0 348.0906896910255 Q 581.7554074274029 450 800 328.81752751591534 Q 1238.6480540002167 450 1600 309.4417096541253 Q 1913.977425361446 450 2400 308.38503647824234 L 2400 800 L 0 800 L 0 344.77619757313545 Z" transform="matrix(1,0,0,1,0,305)" opacity="0.68"></path><path d="M 0 348.0906896910255 Q 581.7554074274029 450 800 328.81752751591534 Q 1238.6480540002167 450 1600 309.4417096541253 Q 1913.977425361446 450 2400 308.38503647824234 L 2400 800 L 0 800 L 0 344.77619757313545 Z" transform="matrix(1,0,0,1,0,366)" opacity="0.84"></path><path d="M 0 348.0906896910255 Q 581.7554074274029 450 800 328.81752751591534 Q 1238.6480540002167 450 1600 309.4417096541253 Q 1913.977425361446 450 2400 308.38503647824234 L 2400 800 L 0 800 L 0 344.77619757313545 Z" transform="matrix(1,0,0,1,0,427)" opacity="1"></path></g></svg>