<svg xmlns="http://www.w3.org/2000/svg" version="1.1" xmlns:xlink="http://www.w3.org/1999/xlink" xmlns:svgjs="http://svgjs.dev/svgjs" viewBox="0 0 2400 800" opacity="0.64"><defs><linearGradient x1="50%" y1="0%" x2="50%" y2="100%" id="sssurf-grad"><stop stop-color="hsla(265, 94%, 46%, 1.00)" stop-opacity="1" offset="0%"></stop><stop stop-color="hsla(265, 60%, 61%, 1.00)" stop-opacity="1" offset="100%"></stop></linearGradient></defs><g fill="url(#sssurf-grad)" transform="matrix(1,0,0,1,0,-301.12750244140625)"><path d="M 0 345.02401713988104 Q 800 450 800 351.9604622476942 Q 1600 450 1600 327.6456938107324 Q 2400 450 2400 306.2550133920739 L 2400 800 L 0 800 L 0 319.2187450830676 Z" transform="matrix(1,0,0,1,0,87)" opacity="0.05"></path><path d="M 0 345.02401713988104 Q 800 450 800 351.9604622476942 Q 1600 450 1600 327.6456938107324 Q 2400 450 2400 306.2550133920739 L 2400 800 L 0 800 L 0 319.2187450830676 Z" transform="matrix(1,0,0,1,0,174)" opacity="0.21"></path><path d="M 0 345.02401713988104 Q 800 450 800 351.9604622476942 Q 1600 450 1600 327.6456938107324 Q 2400 450 2400 306.2550133920739 L 2400 800 L 0 800 L 0 319.2187450830676 Z" transform="matrix(1,0,0,1,0,261)" opacity="0.37"></path><path d="M 0 345.02401713988104 Q 800 450 800 351.9604622476942 Q 1600 450 1600 327.6456938107324 Q 2400 450 2400 306.2550133920739 L 2400 800 L 0 800 L 0 319.2187450830676 Z" transform="matrix(1,0,0,1,0,348)" opacity="0.53"></path><path d="M 0 345.02401713988104 Q 800 450 800 351.9604622476942 Q 1600 450 1600 327.6456938107324 Q 2400 450 2400 306.2550133920739 L 2400 800 L 0 800 L 0 319.2187450830676 Z" transform="matrix(1,0,0,1,0,435)" opacity="0.68"></path><path d="M 0 345.02401713988104 Q 800 450 800 351.9604622476942 Q 1600 450 1600 327.6456938107324 Q 2400 450 2400 306.2550133920739 L 2400 800 L 0 800 L 0 319.2187450830676 Z" transform="matrix(1,0,0,1,0,522)" opacity="0.84"></path><path d="M 0 345.02401713988104 Q 800 450 800 351.9604622476942 Q 1600 450 1600 327.6456938107324 Q 2400 450 2400 306.2550133920739 L 2400 800 L 0 800 L 0 319.2187450830676 Z" transform="matrix(1,0,0,1,0,609)" opacity="1.00"></path></g></svg>