<svg id="visual" viewBox="0 0 960 540" width="960" height="540" xmlns="http://www.w3.org/2000/svg" xmlns:xlink="http://www.w3.org/1999/xlink" version="1.1"><rect x="0" y="0" width="960" height="540" fill="#001220"></rect><defs><linearGradient id="grad1_0" x1="43.8%" y1="0%" x2="100%" y2="100%"><stop offset="14.444444444444446%" stop-color="#001220" stop-opacity="1"></stop><stop offset="85.55555555555554%" stop-color="#001220" stop-opacity="1"></stop></linearGradient></defs><defs><linearGradient id="grad2_0" x1="0%" y1="0%" x2="56.3%" y2="100%"><stop offset="14.444444444444446%" stop-color="#001220" stop-opacity="1"></stop><stop offset="85.55555555555554%" stop-color="#001220" stop-opacity="1"></stop></linearGradient></defs><g transform="translate(960, 0)"><path d="M0 378C-67.6 369 -135.3 360 -189 327.4C-242.7 294.7 -282.6 238.5 -311.8 180C-341 121.5 -359.5 60.8 -378 0L0 0Z" fill="#6600FF"></path></g><g transform="translate(0, 540)"><path d="M0 -378C69.4 -370 138.7 -362 189 -327.4C239.3 -292.7 270.5 -231.5 298.8 -172.5C327.1 -113.5 352.5 -56.8 378 0L0 0Z" fill="#6600FF"></path></g></svg>